<svg id="Layer_1" data-name="Layer 1" xmlns="http://www.w3.org/2000/svg" width="1200" height="1200" viewBox="0 0 1200 1200"><defs><style>.cls-1{fill:#222427;}.cls-2,.cls-3,.cls-4,.cls-5,.cls-6,.cls-7,.cls-8,.cls-9{fill:none;stroke-miterlimit:10;stroke-width:12px;}.cls-2{stroke:#fff;}.cls-3{stroke:#fcc449;}.cls-4{stroke:#ee7219;}.cls-5{stroke:#d60b52;}.cls-6{stroke:#a0151a;}.cls-7{stroke:#7a2182;}.cls-8{stroke:#1d71b8;}.cls-9{stroke:#29235c;}</style></defs><rect class="cls-1" x="-1.53" y="0.58" width="1202.75" height="1200.49"/><path class="cls-2" d="M598.54,513.38q-1.66,137.34-3.32,274.68a198.22,198.22,0,0,0,13,65c3.76,9.68,13.12,31.37,28.34,48.38C667.52,936,721,949.44,763.88,929c49.41-23.49,82-89,82.75-144,.24-17.67-1.66-117.73.24-141a36.26,36.26,0,0,1,4.64-15.72,27,27,0,0,1,14-11.78s15.78-9.12,45.73-4.3c0,0,.19,0,.19,0s-6.22-.28-9.88-.45c-9-.44-16.32-.24-16.32-.21s119.63,1.36,216.29,1.59c48.71.11,121.42,0,211.17-1H1383"/><path class="cls-2" d="M596,794.81l3.72-435.46c.77-12.86,5.54-106.43-30-146.62C566.62,209.2,560.23,202,550,197c-30.53-14.78-60.47,3.72-64.37,6.28-11.15,7.3-19.81,17.25-26.6,28.2-17.17,27.69-20.06,58-22.47,154C435.13,444,434.73,491.78,416,503c0,0-.62.36-23.53,12.3h0L-46.41,514"/><path class="cls-3" d="M591.41,507.27,588.08,782a198.55,198.55,0,0,0,13,65c3.76,9.68,13.12,31.37,28.34,48.38,30.92,34.58,84.38,48,127.29,27.58,49.4-23.49,82-89,82.74-144,.24-17.67-1.65-117.73.25-141a36.26,36.26,0,0,1,4.64-15.72,27,27,0,0,1,14-11.78s15.78-9.13,45.72-4.3c0,0,.19,0,.19,0s-6.21-.28-9.87-.45c-9-.44-16.32-.24-16.32-.21s119.63,1.36,216.28,1.59c48.71.11,121.42,0,211.17-1h70.39"/><path class="cls-3" d="M588.88,788.7l3.72-435.46c.77-12.86,5.54-106.43-30-146.62-3.13-3.53-9.51-10.75-19.71-15.69-30.54-14.78-60.47,3.72-64.37,6.28-11.15,7.3-19.81,17.24-26.6,28.2-17.18,27.69-20.07,58-22.47,154C428,437.92,427.6,485.67,408.9,496.87c0,0-.62.37-23.53,12.31h0l-438.91-1.32"/><path class="cls-4" d="M580.09,502.35Q578.44,639.69,576.77,777a198.06,198.06,0,0,0,13,65c3.76,9.68,13.12,31.36,28.33,48.38,30.93,34.58,84.39,48,127.3,27.58,49.4-23.49,82-89,82.74-144,.24-17.66-1.66-117.72.24-141a36.43,36.43,0,0,1,4.64-15.72,27,27,0,0,1,14-11.77s15.78-9.13,45.73-4.3c0,0,.19,0,.19,0s-6.21-.28-9.88-.46c-9-.43-16.31-.24-16.31-.2S986.39,602,1083,602.19c48.71.12,121.42,0,211.17-1h70.38"/><path class="cls-4" d="M577.57,783.79l3.72-435.46c.76-12.86,5.53-106.43-30-146.62-3.12-3.53-9.5-10.75-19.71-15.69-30.53-14.79-60.47,3.71-64.37,6.27-11.14,7.31-19.8,17.25-26.6,28.2-17.17,27.69-20.06,58.05-22.46,154C416.68,433,416.28,480.76,397.58,492c0,0-.61.37-23.52,12.31h0l-438.92-1.33"/><path class="cls-5" d="M568.91,497.41q-1.65,137.34-3.32,274.68a198,198,0,0,0,13,65c3.76,9.68,13.12,31.37,28.33,48.39,30.93,34.58,84.39,48,127.3,27.58,49.4-23.49,82-89,82.74-144,.24-17.66-1.66-117.73.24-141a36.43,36.43,0,0,1,4.64-15.72,27,27,0,0,1,14-11.77s15.78-9.13,45.73-4.3a.61.61,0,0,1,.19,0c0,.12-6.21-.27-9.88-.45-9-.43-16.31-.24-16.31-.2s119.63,1.36,216.28,1.58c48.71.12,121.42,0,211.17-1h70.38"/><path class="cls-5" d="M566.39,778.84l3.72-435.45c.76-12.86,5.53-106.43-30-146.63-3.12-3.53-9.5-10.75-19.71-15.69-30.53-14.78-60.47,3.72-64.37,6.28-11.14,7.31-19.8,17.25-26.6,28.2-17.17,27.69-20.06,58.05-22.46,154C405.5,428.06,405.1,475.82,386.4,487c0,0-.61.37-23.52,12.31h0L-76,498"/><path class="cls-6" d="M559.42,489.85l-3.33,274.69a198.59,198.59,0,0,0,13,65c3.76,9.68,13.12,31.37,28.33,48.38,30.93,34.58,84.39,48,127.3,27.58,49.4-23.49,82-89,82.74-144,.24-17.66-1.65-117.72.24-141a36.27,36.27,0,0,1,4.65-15.71,26.91,26.91,0,0,1,14-11.78s15.78-9.13,45.72-4.3c0,0,.19,0,.19,0s-6.21-.28-9.88-.46c-9-.43-16.31-.24-16.31-.2s119.63,1.36,216.28,1.58c48.71.12,121.42,0,211.17-1h70.38"/><path class="cls-6" d="M556.89,771.29l3.72-435.46c.76-12.86,5.54-106.43-30-146.62-3.12-3.53-9.5-10.75-19.7-15.69-30.54-14.79-60.48,3.72-64.38,6.27-11.14,7.31-19.8,17.25-26.59,28.2-17.18,27.69-20.07,58.05-22.47,154C396,420.5,395.6,468.26,376.9,479.46c0,0-.61.37-23.52,12.31h0l-438.92-1.33"/><path class="cls-7" d="M549.85,483.14q-1.67,137.34-3.32,274.68a198.22,198.22,0,0,0,13,65c3.76,9.68,13.12,31.37,28.34,48.39,30.93,34.58,84.38,48,127.29,27.58,49.41-23.49,82-89,82.75-144,.24-17.67-1.66-117.73.24-141a36.29,36.29,0,0,1,4.64-15.72,27,27,0,0,1,14-11.78s15.78-9.12,45.73-4.29l.19,0c0,.11-6.22-.27-9.88-.45-9-.43-16.32-.24-16.32-.2s119.63,1.36,216.29,1.58c48.71.12,121.42,0,211.17-1h70.38"/><path class="cls-7" d="M547.32,764.57q1.86-217.73,3.73-435.45c.76-12.87,5.53-106.44-30-146.63-3.12-3.53-9.51-10.75-19.71-15.69-30.53-14.78-60.47,3.72-64.37,6.28-11.15,7.3-19.81,17.25-26.6,28.2-17.17,27.69-20.06,58-22.47,154-1.46,58.53-1.86,106.29-20.56,117.49,0,0-.62.37-23.53,12.3h0L-95.1,483.73"/><path class="cls-8" d="M541.54,474.42l-3.33,274.69a198.55,198.55,0,0,0,13,65c3.76,9.68,13.12,31.37,28.33,48.38,30.93,34.58,84.39,48,127.3,27.58,49.4-23.49,82-89,82.74-144,.24-17.66-1.65-117.72.24-140.95a36.27,36.27,0,0,1,4.65-15.72,27,27,0,0,1,14-11.78s15.78-9.13,45.72-4.3c0,0,.19,0,.19.05s-6.21-.28-9.88-.45c-9-.44-16.31-.24-16.31-.21s119.63,1.36,216.28,1.59c48.71.11,121.42,0,211.17-1H1326"/><path class="cls-8" d="M539,755.86l3.72-435.46c.76-12.86,5.54-106.43-30-146.62-3.12-3.53-9.5-10.75-19.7-15.69-30.54-14.78-60.48,3.72-64.38,6.27-11.14,7.31-19.8,17.25-26.59,28.2-17.18,27.69-20.07,58.05-22.47,154C378.13,405.07,377.72,452.83,359,464c0,0-.61.37-23.52,12.31h0L-103.42,475"/><path class="cls-9" d="M531,468.28Q529.35,605.62,527.69,743a198,198,0,0,0,13,65c3.75,9.68,13.11,31.37,28.33,48.38,30.93,34.58,84.39,48,127.3,27.58,49.4-23.49,82-89,82.74-144,.24-17.67-1.66-117.73.24-141A36.4,36.4,0,0,1,784,583.22a27,27,0,0,1,14-11.78s15.78-9.13,45.73-4.3c0,0,.19,0,.19.05s-6.21-.28-9.88-.45c-9-.44-16.31-.24-16.32-.21s119.63,1.36,216.29,1.59c48.71.11,121.42,0,211.17-1h70.38"/><path class="cls-9" d="M528.48,749.71q1.86-217.73,3.73-435.46c.76-12.86,5.53-106.43-30-146.62-3.12-3.53-9.51-10.75-19.71-15.69-30.53-14.78-60.47,3.72-64.37,6.28-11.14,7.3-19.81,17.24-26.6,28.2-17.17,27.69-20.06,58.05-22.46,154-1.47,58.53-1.87,106.28-20.57,117.48,0,0-.61.37-23.53,12.31h0l-438.91-1.32"/></svg>