<svg id="Layer_1" data-name="Layer 1" xmlns="http://www.w3.org/2000/svg" width="1186.2" height="890.83" viewBox="0 0 1186.2 890.83"><defs><style>.cls-1,.cls-2,.cls-3,.cls-4,.cls-5,.cls-6,.cls-7,.cls-8{fill:none;stroke-miterlimit:10;stroke-width:12px;}.cls-1{stroke:#fff;}.cls-2{stroke:#fcc449;}.cls-3{stroke:#ee7219;}.cls-4{stroke:#d60b52;}.cls-5{stroke:#a0151a;}.cls-6{stroke:#7a2182;}.cls-7{stroke:#1d71b8;}.cls-8{stroke:#29235c;}</style></defs><path class="cls-1" d="M601.3,405.72Q599.64,543.06,598,680.4a198.22,198.22,0,0,0,13,65c3.76,9.68,13.12,31.37,28.34,48.39,30.93,34.58,84.39,48,127.29,27.58,49.41-23.49,82-89,82.75-144,.24-17.67-1.66-117.73.24-141a36.29,36.29,0,0,1,4.64-15.72,27,27,0,0,1,14-11.78S884,499.76,914,504.59l.19,0c0,.12-6.22-.27-9.88-.45-9-.43-16.32-.24-16.32-.2s119.63,1.36,216.29,1.58c48.71.12,121.42.05,211.17-1h70.38"/><path class="cls-1" d="M598.77,687.15q1.86-217.72,3.73-435.45c.76-12.87,5.53-106.43-30-146.63-3.12-3.53-9.51-10.75-19.71-15.69-30.53-14.78-60.47,3.72-64.37,6.28-11.14,7.3-19.81,17.25-26.6,28.2-17.17,27.69-20.06,58.05-22.46,154-1.47,58.53-1.87,106.29-20.57,117.49,0,0-.62.37-23.53,12.3h0l-438.91-1.32"/><path class="cls-2" d="M594.17,399.61Q592.5,537,590.85,674.29a198.22,198.22,0,0,0,13,65c3.76,9.68,13.12,31.37,28.34,48.38,30.92,34.58,84.38,48,127.29,27.59,49.4-23.49,82-89,82.75-144,.24-17.67-1.66-117.73.24-141a36.26,36.26,0,0,1,4.64-15.72,27,27,0,0,1,14-11.78s15.78-9.12,45.72-4.3l.19,0c0,.11-6.21-.27-9.87-.45-9-.43-16.32-.24-16.32-.2s119.63,1.35,216.29,1.58c48.7.11,121.41.05,211.16-1h70.39"/><path class="cls-2" d="M591.64,681l3.72-435.45c.77-12.87,5.54-106.44-30-146.63-3.12-3.53-9.51-10.75-19.71-15.69-30.54-14.78-60.47,3.72-64.37,6.28-11.15,7.3-19.81,17.25-26.6,28.2-17.18,27.69-20.07,58.05-22.47,154-1.46,58.53-1.86,106.29-20.56,117.49,0,0-.62.37-23.53,12.3h0L-50.78,400.2"/><path class="cls-3" d="M582.85,394.7Q581.2,532,579.53,669.38a198,198,0,0,0,13,65c3.76,9.68,13.12,31.37,28.33,48.38,30.93,34.58,84.39,48,127.3,27.58,49.4-23.49,82-89,82.74-144,.24-17.66-1.66-117.72.24-140.95a36.4,36.4,0,0,1,4.64-15.72,27,27,0,0,1,14-11.78s15.78-9.13,45.73-4.3c.05,0,.19,0,.19.05s-6.21-.28-9.88-.45c-9-.44-16.31-.24-16.31-.21s119.63,1.36,216.28,1.59c48.71.11,121.42,0,211.17-1h70.38"/><path class="cls-3" d="M580.33,676.13l3.72-435.46c.76-12.86,5.53-106.43-30-146.62-3.12-3.53-9.5-10.75-19.71-15.69-30.53-14.78-60.47,3.72-64.37,6.28-11.14,7.3-19.8,17.24-26.6,28.2-17.17,27.69-20.06,58-22.46,154C419.44,325.35,419,373.1,400.34,384.3c0,0-.61.37-23.52,12.31h0L-62.1,395.29"/><path class="cls-4" d="M571.67,389.75Q570,527.11,568.35,664.44a198.06,198.06,0,0,0,13,65c3.76,9.68,13.12,31.37,28.33,48.38,30.93,34.58,84.39,48,127.3,27.58,49.4-23.49,82-89,82.74-144,.24-17.66-1.66-117.72.24-141a36.36,36.36,0,0,1,4.64-15.72,27,27,0,0,1,14-11.78s15.78-9.13,45.73-4.3c0,0,.19,0,.19.05s-6.21-.28-9.88-.46c-9-.43-16.31-.23-16.31-.2s119.63,1.36,216.28,1.59c48.71.11,121.42,0,211.17-1h70.38"/><path class="cls-4" d="M569.15,671.19l3.72-435.46c.76-12.86,5.53-106.43-30-146.62-3.12-3.53-9.5-10.75-19.71-15.69-30.53-14.79-60.47,3.72-64.37,6.27-11.14,7.31-19.8,17.25-26.6,28.2-17.17,27.69-20.06,58.05-22.46,154-1.47,58.52-1.87,106.28-20.57,117.48,0,0-.61.37-23.52,12.31h0l-438.92-1.32"/><path class="cls-5" d="M562.18,382.2l-3.33,274.68a198.55,198.55,0,0,0,13,65c3.76,9.68,13.12,31.37,28.33,48.38,30.93,34.58,84.39,48,127.3,27.58,49.4-23.49,82-89,82.74-144,.24-17.67-1.65-117.73.24-141a36.3,36.3,0,0,1,4.65-15.72,27,27,0,0,1,14-11.78s15.78-9.13,45.72-4.3c0,0,.19,0,.19.05s-6.21-.28-9.87-.45c-9-.44-16.32-.24-16.32-.21s119.63,1.36,216.28,1.59c48.71.11,121.42,0,211.17-1h70.39"/><path class="cls-5" d="M559.65,663.63l3.72-435.46c.76-12.86,5.54-106.43-30-146.62-3.12-3.53-9.5-10.75-19.7-15.69-30.54-14.78-60.48,3.72-64.38,6.28-11.14,7.3-19.8,17.24-26.59,28.2-17.18,27.69-20.07,58-22.47,154-1.46,58.53-1.87,106.28-20.57,117.48,0,0-.61.37-23.52,12.31h0l-438.92-1.32"/><path class="cls-6" d="M552.61,375.48q-1.67,137.34-3.32,274.69a198.26,198.26,0,0,0,13,65c3.76,9.68,13.12,31.37,28.34,48.38,30.93,34.58,84.39,48,127.3,27.58,49.4-23.49,82-89,82.74-144,.24-17.66-1.66-117.72.24-141a36.36,36.36,0,0,1,4.64-15.71,27,27,0,0,1,14-11.78s15.78-9.13,45.73-4.3c0,0,.19,0,.19,0s-6.22-.28-9.88-.46c-9-.43-16.32-.24-16.32-.2s119.63,1.36,216.29,1.58c48.71.12,121.42.05,211.17-1h70.38"/><path class="cls-6" d="M550.08,656.92q1.86-217.74,3.73-435.46c.76-12.86,5.53-106.43-30-146.62-3.12-3.53-9.51-10.75-19.71-15.69-30.53-14.79-60.47,3.72-64.37,6.27-11.14,7.31-19.81,17.25-26.6,28.2-17.17,27.69-20.06,58-22.46,154-1.47,58.52-1.87,106.28-20.57,117.48,0,0-.62.37-23.53,12.31h0l-438.91-1.33"/><path class="cls-7" d="M544.3,366.77,541,641.45a198.55,198.55,0,0,0,13,65c3.76,9.68,13.12,31.37,28.33,48.38,30.93,34.58,84.39,48,127.3,27.58,49.4-23.48,82-89,82.74-144,.24-17.67-1.65-117.73.24-141a36.3,36.3,0,0,1,4.65-15.72,27,27,0,0,1,14-11.78s15.78-9.12,45.72-4.3c0,0,.19,0,.19.05s-6.21-.28-9.87-.45c-9-.44-16.32-.24-16.32-.2s119.63,1.35,216.28,1.58c48.71.11,121.42.05,211.17-1h70.39"/><path class="cls-7" d="M541.77,648.2l3.72-435.45c.76-12.87,5.54-106.44-30-146.63-3.12-3.53-9.5-10.75-19.7-15.69-30.54-14.78-60.47,3.72-64.38,6.28C420.27,64,411.61,74,404.82,84.91c-17.18,27.69-20.07,58.05-22.47,154-1.46,58.53-1.87,106.29-20.57,117.49,0,0-.61.36-23.52,12.3h0l-438.92-1.32"/><path class="cls-8" d="M533.77,360.62Q532.11,498,530.45,635.3a198,198,0,0,0,13,65c3.75,9.68,13.11,31.37,28.33,48.38,30.93,34.58,84.39,48,127.3,27.59,49.4-23.49,82-89,82.74-144,.24-17.67-1.66-117.73.24-141a36.4,36.4,0,0,1,4.64-15.72,27.08,27.08,0,0,1,14-11.78s15.78-9.12,45.73-4.3l.19,0c0,.11-6.21-.27-9.88-.45-9-.43-16.31-.24-16.31-.2s119.63,1.35,216.28,1.58c48.71.11,121.42.05,211.17-1h70.38"/><path class="cls-8" d="M531.24,642.05Q533.1,424.33,535,206.6c.76-12.87,5.53-106.44-30-146.63-3.12-3.53-9.51-10.75-19.71-15.69C454.73,29.5,424.79,48,420.89,50.56c-11.14,7.3-19.8,17.25-26.6,28.2-17.17,27.69-20.06,58.05-22.46,154C370.36,291.27,370,339,351.26,350.23c0,0-.61.37-23.53,12.3h0l-438.91-1.32"/></svg>