<svg id="Layer_1" data-name="Layer 1" xmlns="http://www.w3.org/2000/svg" width="2610" height="304.67" viewBox="0 0 2610 304.67"><defs><style>.cls-1,.cls-2,.cls-3,.cls-4,.cls-5,.cls-6,.cls-7,.cls-8{fill:none;stroke-miterlimit:10;stroke-width:12px;}.cls-1{stroke:#fff;}.cls-2{stroke:#fcc449;}.cls-3{stroke:#ee7219;}.cls-4{stroke:#d60b52;}.cls-5{stroke:#a0151a;}.cls-6{stroke:#7a2182;}.cls-7{stroke:#1d71b8;}.cls-8{stroke:#29235c;}</style></defs><line class="cls-1" x1="-107" y1="138.2" x2="1125" y2="138.2"/><path class="cls-1" d="M1340.35,138q-.55,45.87-1.1,91.72a65.87,65.87,0,0,0,4.35,21.71c1.25,3.23,4.38,10.47,9.46,16.15,10.33,11.55,28.18,16,42.51,9.21,16.49-7.84,27.37-29.71,27.62-48.09.08-5.9-.55-39.31.08-47.07a12.25,12.25,0,0,1,1.55-5.25,9.07,9.07,0,0,1,4.67-3.93s5.27-3,15.27-1.44l.06,0s-2.07-.09-3.3-.15c-3-.15-5.44-.08-5.44-.07s39.94.45,72.21.53c16.27,0,40.55,0,70.52-.33H2779.56"/><path class="cls-1" d="M1339.51,232q.62-72.71,1.24-145.41c.26-4.29,1.85-35.54-10-49a20.84,20.84,0,0,0-6.58-5.24c-10.2-4.93-20.2,1.24-21.5,2.1a29.88,29.88,0,0,0-8.88,9.42c-5.73,9.24-6.7,19.38-7.5,51.41-.49,19.54-.62,35.49-6.87,39.23,0,0-.2.12-7.85,4.11h0L1125,138.2"/><path class="cls-2" d="M1338,136l-1.11,91.72a66.2,66.2,0,0,0,4.36,21.71c1.25,3.23,4.38,10.47,9.46,16.15,10.32,11.55,28.18,16,42.5,9.21,16.5-7.84,27.38-29.71,27.63-48.09.08-5.9-.55-39.31.08-47.07a12.25,12.25,0,0,1,1.55-5.25,9.07,9.07,0,0,1,4.67-3.93s5.27-3,15.27-1.44c0,0,.06,0,.06,0s-2.07-.09-3.3-.15c-3-.15-5.45-.08-5.45-.07s40,.45,72.22.53c16.27,0,40.55,0,70.52-.33h1254"/><path class="cls-2" d="M1337.13,229.94q.61-72.7,1.24-145.41c.26-4.29,1.85-35.54-10-49a21,21,0,0,0-6.58-5.24c-10.2-4.93-20.2,1.24-21.5,2.1a30,30,0,0,0-8.88,9.41c-5.74,9.25-6.7,19.39-7.5,51.42-.49,19.54-.63,35.49-6.87,39.23,0,0-.2.12-7.86,4.11h0l-146.55-.44h-1216"/><path class="cls-3" d="M1334.2,134.32,1333.09,226a65.87,65.87,0,0,0,4.35,21.71c1.25,3.23,4.38,10.47,9.46,16.15,10.33,11.55,28.18,16,42.51,9.21,16.49-7.84,27.37-29.71,27.62-48.09.08-5.9-.55-39.31.08-47.07a12.25,12.25,0,0,1,1.55-5.25,9.07,9.07,0,0,1,4.67-3.93s5.27-3.05,15.27-1.44l.06,0s-2.07-.09-3.3-.15c-3-.15-5.44-.08-5.44-.07s39.94.45,72.22.53c16.26,0,40.54,0,70.51-.33H2771.24"/><path class="cls-3" d="M1333.35,228.29q.63-72.69,1.24-145.4c.26-4.29,1.85-35.54-10-49a20.84,20.84,0,0,0-6.58-5.24c-10.2-4.93-20.2,1.24-21.5,2.1a30,30,0,0,0-8.88,9.41c-5.73,9.25-6.7,19.39-7.5,51.42-.49,19.54-.62,35.49-6.87,39.23,0,0-.2.12-7.85,4.11h0l-146.56-.44h-1203"/><path class="cls-4" d="M1330.46,132.32,1329.35,224a66.2,66.2,0,0,0,4.36,21.71c1.25,3.23,4.38,10.47,9.46,16.16,10.32,11.54,28.17,16,42.5,9.21,16.5-7.85,27.38-29.72,27.63-48.1.08-5.9-.55-39.31.08-47.07a12.25,12.25,0,0,1,1.55-5.25,9.07,9.07,0,0,1,4.67-3.93s5.27-3.05,15.26-1.44l.07,0s-2.08-.09-3.3-.15c-3-.15-5.45-.08-5.45-.07s40,.46,72.22.53c16.27,0,40.55,0,70.51-.33H2761.47"/><path class="cls-4" d="M1329.62,226.3q.62-72.7,1.24-145.41c.26-4.29,1.85-35.54-10-49a20.72,20.72,0,0,0-6.58-5.24c-10.19-4.93-20.19,1.25-21.49,2.1a29.88,29.88,0,0,0-8.88,9.42c-5.74,9.24-6.7,19.38-7.5,51.41-.49,19.55-.63,35.49-6.87,39.23,0,0-.21.13-7.86,4.11h0l-146.56-.44H-74.47"/><path class="cls-5" d="M1327.29,130.15l-1.11,91.72a66.4,66.4,0,0,0,4.35,21.7c1.26,3.24,4.38,10.48,9.47,16.16,10.32,11.55,28.17,16,42.5,9.21,16.5-7.84,27.38-29.71,27.63-48.1.08-5.89-.55-39.31.08-47.06a12.08,12.08,0,0,1,1.55-5.25,9,9,0,0,1,4.67-3.94s5.26-3,15.26-1.43c0,0,.07,0,.07,0s-2.08-.1-3.3-.16c-3-.14-5.45-.08-5.45-.06s40,.45,72.22.53c16.27,0,40.54,0,70.51-.33H2752.37"/><path class="cls-5" d="M1326.45,224.12q.61-72.7,1.24-145.4c.25-4.3,1.85-35.54-10-49a20.72,20.72,0,0,0-6.58-5.24c-10.19-4.94-20.19,1.24-21.49,2.09a29.77,29.77,0,0,0-8.88,9.42c-5.74,9.25-6.7,19.38-7.5,51.42-.49,19.54-.63,35.49-6.87,39.23,0,0-.21.12-7.86,4.11h0l-146.56-.45H-59.63"/><path class="cls-6" d="M1324.1,127.91,1323,219.63a66.13,66.13,0,0,0,4.35,21.7c1.25,3.24,4.38,10.48,9.46,16.16,10.33,11.54,28.18,16,42.51,9.21,16.49-7.85,27.38-29.72,27.63-48.1.08-5.9-.56-39.31.08-47.07a12,12,0,0,1,1.55-5.24,9,9,0,0,1,4.66-3.94s5.27-3,15.27-1.43h.06s-2.07-.09-3.3-.15c-3-.14-5.44-.08-5.44-.07s39.94.46,72.22.53c16.26,0,40.54,0,70.51-.32H2745.3"/><path class="cls-6" d="M1323.25,221.88q.63-72.7,1.25-145.4c.25-4.3,1.84-35.54-10-49a20.72,20.72,0,0,0-6.58-5.24c-10.2-4.94-20.19,1.24-21.5,2.09a29.88,29.88,0,0,0-8.88,9.42c-5.73,9.24-6.7,19.38-7.5,51.42-.49,19.54-.62,35.49-6.87,39.23,0,0-.2.12-7.85,4.1h0l-146.56-.44"/><polyline class="cls-6" points="1109.49 128.04 375.63 128.04 -47.22 128.04"/><path class="cls-7" d="M1321.32,125l-1.11,91.73a66.4,66.4,0,0,0,4.35,21.7c1.26,3.24,4.38,10.48,9.47,16.16,10.32,11.54,28.17,16,42.5,9.21,16.5-7.85,27.38-29.72,27.63-48.1.08-5.9-.55-39.31.08-47.07a12,12,0,0,1,1.55-5.24,9,9,0,0,1,4.66-3.94s5.27-3,15.27-1.43h.07s-2.08-.09-3.3-.15c-3-.14-5.45-.08-5.45-.07s40,.46,72.22.53c16.27,0,40.54,0,70.51-.32H2732.16"/><path class="cls-7" d="M1320.48,219q.62-72.71,1.24-145.41c.25-4.29,1.85-35.53-10-48.95a20.72,20.72,0,0,0-6.58-5.24c-10.19-4.94-20.19,1.24-21.49,2.09a29.77,29.77,0,0,0-8.88,9.42c-5.74,9.24-6.7,19.38-7.51,51.42-.48,19.54-.62,35.49-6.86,39.23,0,0-.21.12-7.86,4.1h0l-143.77-.43H-37.92"/><path class="cls-8" d="M1317.81,122.94l-1.11,91.72a65.87,65.87,0,0,0,4.35,21.71c1.25,3.23,4.38,10.47,9.46,16.16,10.33,11.54,28.18,16,42.51,9.2,16.49-7.84,27.38-29.71,27.63-48.09.08-5.9-.56-39.31.08-47.07a12.11,12.11,0,0,1,1.55-5.25,9,9,0,0,1,4.66-3.93s5.27-3,15.27-1.44l.06,0s-2.07-.09-3.3-.15c-3-.15-5.44-.08-5.44-.07s39.94.45,72.22.53c16.26,0,40.54,0,70.51-.33H2721.39"/><path class="cls-8" d="M1317,216.92q.63-72.71,1.24-145.41c.26-4.29,1.85-35.54-10-49a20.84,20.84,0,0,0-6.58-5.24c-10.2-4.93-20.19,1.24-21.5,2.1a29.88,29.88,0,0,0-8.88,9.42c-5.73,9.24-6.7,19.38-7.5,51.41-.49,19.55-.62,35.49-6.87,39.23,0,0-.2.13-7.85,4.11h0l-146.56-.44H-24.89"/></svg>