<svg id="farver" xmlns="http://www.w3.org/2000/svg" width="1280" height="720" viewBox="0 0 1280 720"><defs><style>.cls-1,.cls-2,.cls-3,.cls-4,.cls-5,.cls-6,.cls-7,.cls-8{fill:none;stroke-miterlimit:10;}.cls-1{stroke:#ffc11a;}.cls-2{stroke:#ff8c00;}.cls-3{stroke:#fa007f;}.cls-4{stroke:#d00014;}.cls-5{stroke:#831486;}.cls-6{stroke:#2a2360;}.cls-7{stroke:#00a1eb;}.cls-8{stroke:#038c25;}</style></defs><path class="cls-1" d="M.5,626.5c88-2,175.38-22.59,261.66-38,38.4-6.85,76.89-13.57,115.65-18,26.41-3,59.43,1,83.91-9.79,26.76-11.77,46-39.82,61.06-63.54,19.44-30.67,35.33-63.46,52.15-95.58,23.52-44.91,58.76-126.1,119.05-127.88,97.59-2.88,70.92,141.88,149.22,168.12,26,8.7,55.42.88,80.17-7.9,37.88-13.42,73.39-33.26,108.26-53,75.25-42.69,158-106.22,246.86-113.37"/><path class="cls-1" d="M1,634.54c87.94-.6,175.45-23,261.42-39.27C300.64,588,339,581,377.65,576.59c26.65-3,59.35,1.42,83.93-10,57-26.42,85.57-106,113.19-157.81,23.31-43.69,59.83-125.54,119.14-126.47,93.34-1.47,75.49,138.13,151.22,164.91,26.3,9.31,55.24.64,80.34-8.36,37.56-13.46,72.95-32.73,107.77-52,75.84-42,157.25-102,245.74-111"/><path class="cls-1" d="M1,641c87.7.3,175-24.19,260.35-41.7,38-7.8,76.14-15.39,114.67-19.94,26.83-3.16,59.26,1.5,84-10.08,56.45-26.44,85.27-103.46,113.31-154.67,23.41-42.76,60.84-123.77,119.19-124.43,89.75-1,82,131.43,155.67,157.94,26.48,9.53,54.83.69,80.22-8.26,37.07-13.06,72.17-31.43,106.76-49.93,76.13-40.72,156.19-96.59,243.78-107"/><path class="cls-1" d="M1,645.93c87.38.69,174.27-26.19,258.79-45.27,37.68-8.51,75.56-16.8,113.91-21.69,26.92-3.43,59.07,1.27,83.94-10.28,55.78-25.92,85-100,113.5-150.31,23.78-42,61.8-120.67,119.29-121.21,86.52-.82,89.78,122.47,162.21,147.72,26.64,9.29,54.37.76,80.05-7.95,36.44-12.35,71.13-29.59,105.36-47,76-38.7,154.71-90.19,240.89-101"/><path class="cls-1" d="M1,649.64c87,.64,173.26-28.9,256.8-49.84,37.3-9.35,74.84-18.46,113-23.86,27-3.81,58.79.77,83.78-10.55,55.06-24.94,84.82-95.88,113.72-144.89,24.42-41.41,62.76-116.43,119.46-117,83.6-.82,98.72,111.51,170.57,134.7,26.79,8.65,53.89.83,79.84-7.47,35.69-11.4,69.85-27.27,103.6-43.39,75.53-36.07,152.85-82.86,237.22-93.42"/><path class="cls-2" d="M1,652.27c86.58.23,172-32.23,254.43-55.25,36.86-10.3,74-20.36,111.84-26.4,26.92-4.29,58.41,0,83.52-10.87,54.28-23.59,84.63-91.11,114-138.57,25.29-40.89,63.69-111.22,119.68-111.9,81-1,108.67,98.79,180.48,119.26,26.9,7.68,53.41.88,79.6-6.83,34.82-10.24,68.37-24.55,101.55-39.15,74.76-32.92,150.62-74.71,232.85-84.39"/><path class="cls-2" d="M1,654c86.15-.49,170.64-36.08,251.75-61.37,36.37-11.34,73.06-22.44,110.6-29.24,26.87-4.86,57.93-.88,83.19-11.25C500,530.21,531,466.33,560.83,420.67c26.39-40.38,64.65-105.22,119.94-106.1,78.89-1.26,119.43,84.54,191.69,101.83,58.21,13.93,125.68-19.48,178.58-40.49,73.76-29.29,148.1-65.83,227.93-74.18"/><path class="cls-2" d="M1,655c85.73-1.45,169.12-40.35,248.82-68,35.84-12.45,72-24.67,109.26-32.32,26.82-5.5,57.34-1.93,82.8-11.66,52.55-20.08,84.23-80.13,114.59-123.81,27.66-39.8,65.6-98.59,120.23-99.72,77.6-1.61,130.59,69,203.91,82.81,58.2,11,121.74-15.66,175.8-34.49,72.55-25.26,145.3-56.33,222.54-63"/><path class="cls-2" d="M1,655.54c85.33-2.58,167.52-45,245.73-75.14,35.26-13.61,70.94-27,107.83-35.57,26.81-6.23,56.63-3.09,82.36-12.11,51.62-18.07,84-74.13,114.92-115.69,29.1-39.09,66.6-91.54,120.55-92.93,77.53-2,141.73,52.48,216.9,62.63,57.93,7.82,117.89-12,172.86-28.12,71.15-20.91,142.27-46.34,216.82-51.22"/><path class="cls-2" d="M1,655.7c85-3.84,165.86-49.79,242.5-82.5,34.68-14.79,69.81-29.4,106.36-38.94,26.85-7,55.81-4.32,81.9-12.57C530.52,490.48,556.36,332,667.91,328.55c78.94-2.43,152.45,35.29,230.39,41.67,128.89,10.54,252.52-55.17,380.69-60.45"/><path class="cls-3" d="M1,655.7c84.64-5.16,164.21-54.76,239.23-90,34.07-16,68.65-31.82,104.86-42.37,26.94-7.85,54.89-5.58,81.42-13,98.54-27.69,127.11-173.55,236.83-177.41,81.8-2.88,162.52,17.86,244.1,20.36C1033.1,357.12,1153.8,313.94,1279,312"/><path class="cls-3" d="M1,655.73c84.36-6.49,162.58-59.77,236-97.44,33.46-17.18,67.48-34.24,103.36-45.79,27.08-8.72,53.92-6.85,80.95-13.5C519.1,475,551.33,341.47,658.79,337.28c85.84-3.35,171.88.58,257.76-.88,54.81-.93,109-2.63,163.62-8.09,66.17-6.61,132.22-14.75,198.84-14"/><path class="cls-3" d="M1,656c84.14-7.75,161-64.71,232.78-104.74,32.86-18.33,66.31-36.59,101.89-49.13,27.21-9.59,52.93-8.12,80.49-14,96.66-20.48,133.38-142,238.19-146.37C745,338,834.94,325.55,925.47,320.11c53.33-3.21,107.13-.11,160.59-1.53,64.32-1.71,128.61-4.2,193-1.83"/><path class="cls-3" d="M1,656.6c84-8.89,159.58-69.48,229.72-111.72C263,525.44,295.9,506,331.2,492.53c27.31-10.44,52-9.32,80.06-14.38,46.76-8.44,82-44.14,116.64-73.9C565,372.38,600,348.68,650.09,346.46c95.76-4.23,188.71-32.23,283.92-41.55,52-5.09,105.57,2.16,157.69,4.74,62.45,3.1,124.91,6.08,187.33,9.83"/><path class="cls-3" d="M1,657.81c83.89-9.83,158.29-74,226.87-118.25,31.72-20.47,64.12-41,99.17-55.36,27.38-11.23,51.19-10.45,79.68-14.79,45.82-7,81.61-39,117-66.38,38.31-29.69,73.21-49.31,122.48-51.56C747,346.86,842.3,304.3,942,291.32c51.07-6.65,104.21,4.16,155,10.61,60.61,7.71,121.13,15.87,182.06,20.72"/><path class="cls-4" d="M1,659.79c83.86-10.51,157.17-78.09,224.27-124.18,31.2-21.43,63.13-43,98-58.13,27.39-11.91,50.54-11.43,79.38-15.15,45-5.79,81.19-34.4,117.23-59.49,39.32-27.39,74.35-43.7,122.72-45.95C748.26,352,845.39,296,949.29,279.83c50.52-7.87,103,5.84,152.46,15.95,58.86,12,117.36,25,177.29,30.61"/><path class="cls-4" d="M1,662.71c83.9-10.85,156.28-81.7,222-129.36,30.73-22.29,62.23-44.75,96.9-60.57C347.22,460.31,370,460.56,399,457.32c44.16-4.91,80.83-30.47,117.48-53.41,40-25.07,75.44-38.87,122.93-41.1,110.18-5.16,208.53-73,316.24-91.84,50.37-8.79,101.91,7.18,150.26,20.61,57.3,15.92,113.66,33.29,173.11,39.27"/><path class="cls-4" d="M1,666.76C85,656,156.64,582.07,221.11,533.11c30.31-23,61.44-46.29,96-62.63,27.24-12.87,49.82-12.77,79-15.7,43.46-4.37,80.51-27.3,117.69-48.29,40.49-22.85,76.46-35,123.08-37.15C751,364,849.87,285.85,961,265.24c50.44-9.35,101.06,8.09,148.4,24.48,55.93,19.37,110.22,40.56,169.64,46.43"/><path class="cls-4" d="M1,672.13c84.2-10.24,155.33-87,218.69-136.91,30-23.62,60.79-47.56,95.29-64.24,27.11-13.1,49.82-13,79-15.89,42.88-4.19,80.25-24.94,117.86-44.25C552.44,390,589.21,378.67,635,376.58c117.49-5.39,216-92,330.07-113.43,50.66-9.52,100.45,8.55,146.94,27.43,54.85,22.27,107.22,46.65,167,51.86"/><path class="cls-4" d="M1,679c84.46-9.16,155.35-88.36,217.79-139,29.67-24.06,60.29-48.52,94.81-65.34,27-13.13,50.05-13,79.09-16,42.39-4.43,80-23.5,118-41.49,40.48-19.2,78.21-30.59,123.2-32.58,120.12-5.3,217.29-98.3,333.86-119.39,110.88-20.06,203,77.66,311.3,84.64"/><path class="cls-5" d="M1,687.38C85.79,678.76,156.12,599,218.27,547.92c29.47-24.23,59.94-48.85,94.43-65.62,26.89-13.08,50.39-12.87,79.34-16.13,42.24-4.74,80.18-23.2,118.36-40.6,40.3-18.36,78.64-30.31,123.17-32.21C754.7,388.17,851,292.67,968.6,272.29c112.54-19.49,200.72,80.91,310.4,86.13"/><path class="cls-5" d="M1,693.54c84.41-10.81,152.19-85.74,214.89-136.87,29.07-23.7,59.13-47.6,93-64.09,27.06-13.17,50.29-13.53,79.47-16.45,43.33-4.33,82.2-24.53,121-42.77,41-19.3,78.85-31.2,124.36-33.27C752.87,394.68,852,304.9,967.7,283.2c50.6-9.49,100,8.51,145.89,28.53C1167.84,335.4,1219,361.06,1279,365.66"/><path class="cls-5" d="M.93,696.21c83-11.86,148-81.67,210.36-131.91C239.66,541.44,269,518.59,302,502.73c27.08-13,50.21-13.58,79.35-16.4,45-4.36,85.46-26.89,125.38-46.39,42.09-20.56,80.24-33.5,127.24-35.7,56.35-2.62,112.28-28.1,163.61-49.39,54.7-22.71,109.83-48.46,168.38-59.6,50.16-9.54,100.07,8.2,146.51,26.07,54.85,21.11,107.36,43.85,166.57,49.41"/><path class="cls-5" d="M.79,695.79c80.69-12,142.66-76.32,203.93-124.86,27.4-21.71,55.79-43.24,87.6-58.14,27-12.64,50.13-13.11,79-16,47.26-4.81,89.8-30.16,131.31-51.28,43.4-22.07,82.71-37,131.64-39.34,55.35-2.61,111.06-25.63,162.42-44.64C851.25,341.29,906,318.8,963.51,308.3c49.8-9.11,100.22,7.41,147.39,22.6,55.6,17.91,109.66,37.11,168.19,43"/><path class="cls-5" d="M.61,692.68c75.81-11.14,133.21-67.11,191.3-112.43,28.28-22.06,57.52-44.07,90.58-58.53,26.49-11.58,50.93-11.06,78.73-14.7,50.25-6.59,95.73-35.75,139.71-58.91s83.81-38.84,133.39-41.71c111-6.44,214.25-64.83,323.17-83.68,50.25-8.7,101.32,5.25,150,17.41,56.93,14.21,113,29.52,171.6,35.29"/><path class="cls-6" d="M.36,686.57c71.82-9.83,125.28-59.06,181-101.16,26.6-20.09,54.16-39.87,85.19-52.61,26.15-10.75,50.92-9.79,78.11-13.89C450.13,503,525.71,410.62,634.75,404.28,743,398,846.52,354.33,953.45,339c50.21-7.21,101.81,3.83,151.45,11.92,58,9.45,115.71,19.51,174.3,24.58"/><path class="cls-6" d="M.1,679.11c67.7-8.23,117.34-51,170.55-89.71,24.92-18.13,50.79-35.66,79.77-46.69,25.78-9.8,50.92-8.41,77.45-13C439.66,510.48,519.21,407.56,635.19,400.9c105.71-6.08,209.07-35.12,314.17-46.7,50.5-5.56,102.37,2.27,152.85,6.36,59,4.77,118,9.65,177,13.73"/><path class="cls-6" d="M-.19,670.22c63.14-6.4,108.8-42.47,159.24-77.33,23.11-16,47.17-31.18,73.94-40.3,25.41-8.66,50.9-6.71,76.71-11.94,117.94-23.93,203-137.41,326-144.22,103.33-5.72,206.05-19.21,309.26-26.54,51.19-3.63,103,.5,154.38.35,60-.18,120-.83,180,2"/><path class="cls-6" d="M-.5,660.3c58.2-4.48,99.85-33.64,147.3-64.26,21.28-13.73,43.41-26.34,67.82-33.6,25-7.46,50.74-5.1,75.91-10.82,65.14-14.79,124-58.38,180.31-92.38,50.91-30.77,104.49-64.93,165.34-68.05,101.19-5.21,202.8-2.5,304.08-5.28,52.18-1.44,103.9-1.43,156-6,61-5.35,121.77-11.73,183.14-10.38"/><path class="cls-6" d="M-.82,649.74c52.89-2.58,90.68-24.81,135-50.77,19.41-11.38,39.56-21.28,61.51-26.7,24.79-6.12,50.4-3.45,75.08-9.63C340,545.29,402.48,498,462.3,461c52.58-32.52,110.7-72.63,174.4-75.52,99.46-4.53,199.34,14.71,298.74,16.65,116.58,2.27,228-35.07,344-35.67"/><path class="cls-7" d="M-1.14,639c46.11-.86,80-15.36,120.06-35.89,16.24-8.32,32.88-15.49,50.74-19.56,23.73-5.4,48.06-2.55,71.71-7.54,73.36-15.46,140.9-68,202.86-107.34,55.71-35.33,124.07-86.86,192.93-88.92,99.45-3,197.22,32.61,296.13,38.85,118.89,7.5,228.34-51.48,346.24-55.33"/><path class="cls-7" d="M-1.46,628.35c40.22.52,71.51-7.91,108.09-22.78,14.43-5.87,29.13-10.45,44.56-12.8,23.29-3.55,47-.18,70-5.49C298.6,569.4,369.69,513,435.08,470.84c35.25-22.74,70.64-45.58,107.86-65,29-15.15,61.31-31,94.67-31.77,98.92-2.33,193.25,50.11,290.82,60.85,121.23,13.34,231.43-67.72,351.17-74.8"/><path class="cls-7" d="M-1.77,618.32c34.21,1.5,63.64-1.81,96.46-10.05,35.44-8.9,72-1.07,106.91-9.74,81.33-20.23,155.86-80.26,224.62-125.28,37.16-24.34,74.46-48.78,113.64-69.79,29.6-15.87,63.78-34,98.19-34.62,47.32-.8,96.88,19.77,140.3,36.27,47.41,18,94.92,38.1,145.36,46,56.58,8.82,112.87-13.56,164.57-34.28,62.35-25,123.58-53.79,191.39-59.45"/><path class="cls-7" d="M-2.07,609.26a803.78,803.78,0,0,0,85.41,2.06c32.89-1.09,67.7,6.81,99.63-1.62C268,587.24,345.85,523.7,417.82,476c39-25.86,78.12-51.84,119.19-74.36,30.12-16.52,66.1-36.91,101.46-37.28,47.32-.5,96.71,25.28,138.14,45.31,45.95,22.22,92.07,47.22,142.6,57.26,57.15,11.36,115.64-17.15,166.23-40.79,62.66-29.28,124.38-63.64,194.29-70.94"/><path class="cls-7" d="M-2.33,601.58c26,2.51,50.22,6.08,75.15,13.28,29.31,8.47,63.36,14,92.89,5.89,40.72-11.26,78.36-34.18,114.11-56.07,44.3-27.12,87.14-56.58,130.26-85.5,40.72-27.31,81.57-54.72,124.4-78.66,30.59-17.1,68.19-39.48,104.39-39.66,47.61-.24,96.6,30.5,136.14,53.65,44.47,26,89.24,55.77,140,67.8,57.68,13.66,118.32-20.76,167.76-46.84,62.84-33.16,125-72.9,197-81.59"/><path class="cls-8" d="M-3.48,595.6c27.63,3.06,46,6.39,66.72,23.3,22.38,18.23,59.22,20.46,85.7,13.12,41.83-11.61,80.45-35.56,117.08-58.19,46-28.43,90.53-59.27,135.32-89.59,42.39-28.7,84.88-57.52,129.37-82.91,31.23-17.82,70.26-42.07,107.48-42.62,48-.72,96.76,34.68,134.49,60.43,43.08,29.41,86.52,63.7,137.66,77.72,58.35,16,120.45-23.2,169-51.39,63-36.56,125.67-81.51,199.48-91.71"/><path class="cls-8" d="M-3.67,591.89c15.15,1.76,36.54,2.53,48.65,13.62,5.87,5.36,6.69,11.66,10.21,18.27,14,26.3,56,25.89,80.4,19,42.88-12.14,82.43-37.13,119.92-60.53,47.58-29.69,93.61-61.81,139.93-93.4,43.8-29.86,87.69-59.87,133.62-86.4,31.62-18.27,71.59-43.74,109.47-44.27,48.81-.67,96.67,38.58,133,66.67,41.72,32.28,84,70.75,135.62,86.13,59,17.57,122.49-26.12,170.18-56,62.9-39.44,126.11-89.23,201.58-100"/><path class="cls-8" d="M-3.83,590.78c14.64,1.59,36.88,2.37,46.81,15.63,5.38,7.19,3.82,15.08,5.73,23.19,7.4,31.53,51.05,30.8,76.1,23.65,43.75-12.47,83.87-38.4,122.09-62.31,49-30.65,96.27-64,143.9-96.67,45-30.86,90.07-61.88,137.23-89.38,32-18.64,72.39-44.81,110.8-45.38,49.74-.73,96.56,41.46,131.76,71.58C811,465.71,852.34,508,904.5,524.2c59.8,18.6,124.06-28.44,171.14-59.8,62.63-41.72,126.4-96,203.28-106.77"/><path class="cls-8" d="M-3.94,592.66c14.55,1.3,37.54,1.75,45.87,16.67,4.75,8.51,1.83,18.06,2.09,27.17,1,35.24,47.76,34.13,73,27C161.3,651,201.9,624.31,240.49,600c50.07-31.51,98.41-65.75,147.11-99.32,45.94-31.65,92-63.49,140.11-91.75C560,390,600.29,363.78,639.08,363.07c50.81-.92,96.4,43.09,130.89,75,39.33,36.36,79.87,82,132.62,98.44,60.78,19,125-29.93,171.83-62.58C1136.61,430.55,1201,372.15,1279,362.19"/><path class="cls-8" d="M-4,598c14.73.81,38.43.49,46,16.58,4.44,9.49,0,20.33-.58,30.09C39.06,682,86,680.77,112.57,673.45c44.53-12.26,85.36-39.49,124-63.9,50.88-32.14,100-67,149.48-101.26,46.6-32.23,93.29-64.65,142.14-93.44,32.45-19.12,72.08-44.76,111.1-45.71,52-1.26,96.16,43.17,130.41,76.64,38.36,37.48,78.42,86,131.77,101.92,62,18.49,125.22-30.4,172.25-64.26,61.51-44.28,126.61-106.36,205.27-114.6"/><path class="cls-1" d="M-2.6,606.17C12.13,607,34.63,607,41.9,623c4.34,9.58,0,20.58-.37,30.45C40,691.37,88.26,688.91,114.84,681.3c44.88-12.86,86-40.31,125-65.14,50.8-32.33,99.86-67.39,149.32-101.73,46.32-32.15,92.75-64.48,141.43-93,32.4-19,71.39-43.62,110.28-44.14,52.74-.72,95.78,43.49,130.06,78,37.57,37.85,77.32,87.38,131.07,101.94,62.73,17,125.46-32,172.87-66.24,60.88-43.95,127.2-107.63,205.65-113.86"/><path class="cls-1" d="M-2.4,615.18c14.86,1.28,35.7,2.14,44.12,17,5,8.73,2.62,18.9,3.57,28.36,3.65,36.08,50,34,76.6,26.14,44.7-13.15,85.53-40.25,124.39-65.18C296,589.62,343.86,555,392.18,521.16c45.25-31.7,90.64-63.57,138.34-91.54,32.47-19,71.54-43.38,110.49-43.85,52.81-.64,95.09,43.28,128.9,78.32,36.7,38,75.35,87.27,128.85,101.45,62.71,16.62,126.43-33,174.3-66.53,61.58-43.13,129.57-106.48,207.92-112.86"/><path class="cls-1" d="M-2.81,624.13c35,2.15,45,11.75,54.73,41.64,10.61,32.67,53.84,31.84,81.13,23.79,44-13,84.09-39.54,122.23-64.25,48.12-31.17,94.42-65.1,141.15-98.29,43.83-31.13,87.82-62.4,134.16-89.75,32.28-19,71.06-43,109.81-43.53C693,393,734.07,436.36,767,471.83,802.43,510,839.46,559,892.3,573,955,589.63,1020.4,539.67,1069,507c63-42.4,133.11-105.11,212-111.86"/><path class="cls-1" d="M-3.34,633c33.3,2.43,46.72,11.3,64.39,36.55,19,27.24,57.93,29.17,87.38,20.5,42.84-12.61,82-38.44,118.92-62.82,46.11-30.45,90.51-63.42,135.29-95.78,42.05-30.39,84.29-60.91,128.9-87.49,31.77-18.91,69.81-42.15,108-42.74,110.51-1.71,144.6,152,243.85,178.53,62.82,16.79,130.52-33.49,180-65.16C1128.49,473,1201,411.11,1281,404.15"/><path class="cls-1" d="M-4,641.89c32.19,2.42,51.91,11.21,76.32,30.26,26.31,20.52,63.51,25.65,95.09,16.41,41.42-12.1,79.14-37.15,114.63-61,43.87-29.46,86-61.46,128.47-92.84,40-29.52,80.13-59.16,122.72-84.83,31-18.66,67.89-41,105.21-41.55,109-1.62,136.67,151.36,233.89,177.67,63,17,133.59-33.55,184.09-64.12,67.64-40.93,143-101.76,224.53-108.76"/><path class="cls-2" d="M-4.69,650.71c33,2.8,60,10.41,90.17,23,32,13.31,70.19,21.43,104,11.65,39.72-11.47,75.75-35.64,109.51-58.78,41.37-28.36,80.9-59.3,120.86-89.57,37.62-28.51,75.42-57.17,115.73-81.83,29.91-18.31,65.42-39.54,101.6-40,107.27-1.4,127.48,150.61,222.32,176.68,63.27,17.4,137.22-33.49,188.86-62.88C1119,488.74,1197.52,429.06,1281,422.15"/><path class="cls-2" d="M-5.49,659.5c35.89,2.34,70.42,7.82,105.61,14.83,35.93,7.16,78.26,16.5,114,6.34,80.87-23,151.77-91.83,216.29-142.3,35.05-27.42,70.29-55,108.1-78.56C567.17,441.94,601,422,635.83,421.62c105.33-1.06,117.22,149.73,209.43,175.6,63.61,17.84,141.34-33.31,194.17-61.51,73.84-39.41,155.77-97.86,241.55-104.56"/><path class="cls-2" d="M-6.33,668.26c40.76,1.75,81.5,3.87,122.24,6.07,39.37,2.13,86.6,11.22,124.73.6,76-21.16,141.71-87.48,201.18-135.81,32.3-26.26,64.82-52.66,100-75.06,27.28-17.39,59.21-35.95,92.53-36.15,103.34-.65,106.11,148.74,195.53,174.42,28.15,8.09,57,.28,84-8.72,40.09-13.39,78.2-32.44,115.94-51.28,77.34-38.61,162.83-95.78,251.22-102.18"/><path class="cls-2" d="M-7.22,677c46.68.89,93.12-1,139.74-3.14,20.69-1,41.39-1.75,62.11-2,24.43-.29,50.1,3,73.92-3.45,70.91-19.25,131.17-82.95,185.33-129,47-40,112-105.28,178.86-105.37,101.35-.14,94.35,147.67,180.9,173.2,28.14,8.3,58,.14,85.07-8.36,41.62-13,81.42-31.66,120.88-50.06,81-37.79,170.18-93.65,261.39-99.67"/><path class="cls-2" d="M-8.13,685.76c53-.23,105.16-6.44,157.74-12.64,23.72-2.79,47.47-5.37,71.31-6.84,25.05-1.54,52,1.59,76.35-4.83,65.75-17.31,120.34-78.28,169.05-122,43.19-38.78,101.73-99.63,164.79-99.36C730.58,440.5,713.27,586.6,797,612c28.13,8.55,59,0,86.21-8,43.2-12.71,84.74-30.86,126-48.81,84.77-36.94,177.68-91.5,271.86-97.09"/><path class="cls-3" d="M-9,694.49c59.47-1.56,117.43-12.11,175.9-22.19,26.75-4.62,53.57-8.93,80.58-11.73,25.8-2.67,53.63,0,78.8-6.23,60.56-15.1,109.56-73.71,152.64-115,39.28-37.6,91.28-93.91,150.59-93.28,97.76,1,69.79,145.31,150.67,170.67,28.11,8.81,60,0,87.37-7.59,44.81-12.35,88.09-30,131.07-47.55,88.55-36.07,185.18-89.34,282.41-94.48"/><path class="cls-3" d="M-10,703.24c65.84-3,129.63-18,193.86-31.66,29.75-6.35,59.61-12.41,89.76-16.56,26.62-3.66,55.17-1.48,81.21-7.6,55.55-13.06,98.84-69.16,136.4-108,35.35-36.55,80.87-88.24,136.56-87.29,96.28,1.64,57.45,144.08,135.66,169.41,28.07,9.09,61.06-.1,88.51-7.2,46.4-12,91.43-29.21,136.13-46.3,92.21-35.27,192.6-87.21,292.85-91.91"/><path class="cls-3" d="M-10.84,712c72-4.51,141.5-23.73,211.26-40.83,32.67-8,65.47-15.75,98.68-21.26,27.42-4.54,56.64-2.81,83.53-8.91,51-11.55,88.2-64.47,120.63-101.21,31.45-35.62,70.72-82.72,123-81.48,95,2.25,45.39,142.84,121.11,168.19,28,9.38,62.08-.14,89.6-6.84,47.95-11.67,94.65-28.43,141-45.09,95.82-34.4,199.71-85.13,303-89.41"/><path class="cls-3" d="M-11.68,720.76c77.79-5.94,152.79-29.28,227.75-49.52,35.46-9.57,71.07-18.92,107.19-25.73,28.19-5.33,57.95-4.06,85.67-10.13C502.17,615,521.58,461.53,624.77,464.6c94.09,2.81,33.87,141.64,107.33,167,27.95,9.66,63-.17,90.61-6.51,49.43-11.36,97.72-27.7,145.72-43.94,55.12-18.63,110-38.16,165.51-55.51,47.87-14.95,96.63-29.66,147-31.53"/><path class="cls-3" d="M-12.46,729.55c83.14-7.19,163.26-34.44,243-57.53,38.07-11,76.29-21.87,115.12-29.92,28.91-6,59.08-5.15,87.58-11.19,86.63-18.38,92.94-163.17,190.18-159.78,93.46,3.27,23.15,140.51,94.61,166,27.87,9.93,63.9-.2,91.5-6.22,50.82-11.09,100.58-27,150.08-42.86,56.9-18.2,113.54-37.26,170.84-54.2,49.11-14.53,99.09-28.93,150.56-30.66"/><path class="cls-4" d="M-13.17,738.38c90.26-8.38,177.31-40.67,263.52-66.82,42.23-12.81,84.66-25.49,127.94-34.27,26.79-5.44,56.92-3,82.68-10.95,74.73-23,71.28-152,161.14-148.4,92,3.69,15.19,136.2,81.39,164.46,25.77,11,62.09,1.1,88.36-4.19,51-10.27,101-25.4,150.72-40.38,58.14-17.52,116-36,174.34-52.83,53.42-15.36,108.18-31.1,164.06-32.85"/><path class="cls-4" d="M-13.79,747.24c94.43-9,185.72-44.8,275.57-73.16,44.29-14,88.79-27.91,134.25-37.6,27-5.75,57.34-3.33,83.27-11.31C549.86,603.46,534,481.47,621.08,485.1c92.06,3.84,7,135.24,71.69,163.62,25.58,11.22,62.61,1,88.8-4.05,52-10.1,103.13-24.91,154-39.57,59.59-17.16,118.89-35.3,178.67-51.75,54.38-15,110-30.46,166.72-32.2"/><path class="cls-4" d="M-14.31,756.14c97.74-9,192.62-48.14,285.25-78.25,46-14.95,92.17-29.94,139.43-40.33,27.08-6,57.62-3.45,83.65-11.51,67.63-20.94,40.42-136.88,126.25-133.4,92.59,3.76.21,134.49,63.92,163,25.44,11.37,62.95,1,89.07-4,52.89-10,104.9-24.53,156.73-38.9,60.82-16.86,121.37-34.65,182.38-50.84,55.06-14.61,111.39-29.9,168.61-31.73"/><path class="cls-4" d="M-14.7,765.1c100-8.42,197.79-50.55,292.17-81.9,47.21-15.69,94.69-31.52,143.3-42.37,27.13-6.06,57.74-3.36,83.82-11.55,66-20.73,29-131.76,115.13-128.62,93.67,3.41-4.89,134,58.36,162.47,25.38,11.44,63.06.87,89.15-4,53.51-10,106.21-24.28,158.75-38.4,61.81-16.62,123.39-34.12,185.37-50.1,55.45-14.3,112.14-29.45,169.63-31.48"/><path class="cls-4" d="M-14.95,774.11c101-6.94,201.1-51.86,296-83.91,48-16.2,96.24-32.6,145.7-43.64,27.11-6,57.66-3,83.72-11.39,32.93-10.55,36.49-43.95,43.89-72.82,8.71-34,28-54.26,65.14-53.17,95.35,2.81-8.17,133.74,55.29,162.21,25.42,11.41,62.91.75,89-4.11,53.89-10,107-24.16,160-38.09,62.53-16.45,124.85-33.72,187.55-49.57,55.49-14,112.2-29.1,169.65-31.47"/><path class="cls-5" d="M-14.92,782.38c100.93-7.07,201-51.8,295.91-83.74,48-16.14,96.24-32.49,145.69-43.53,27.08-6,57.7-3.27,83.7-11.92,32.6-10.85,36.36-42.9,43.85-71.74,8.65-33.29,28.69-54.21,65.26-53.11,93.57,2.83-6,132.41,56.18,161.22,25.42,11.79,62.91.77,89.08-4.14,53.73-10.07,106.74-24,159.62-37.74,62.29-16.19,124.37-33.17,186.8-48.81,55.64-13.93,112.31-28.72,169.81-31.72"/><path class="cls-5" d="M-14.6,787.61c97.66-7.75,193.62-48.79,285.69-79.47,45.88-15.29,92-30.58,139-42.06,30.13-7.37,61.68-6.74,91.35-14.05,69.66-17.14,32.42-125.91,118.18-123.54C711.3,531,618,659.92,682.36,686.7c27.38,11.39,65.78-.55,93.28-5.83,54.32-10.42,108-24.37,161.5-38.21,111.71-28.88,228-69.43,343.84-76.51"/><path class="cls-5" d="M-14.08,790c96.53-8.08,191-47.19,282.35-77,45.26-14.76,90.7-29.5,137-40.61,30-7.22,61.52-6.84,91.14-14.1,68.4-16.77,40.51-121.61,123.51-119.17,89.12,2.63,6.53,126.56,70.31,152.73,27.51,11.29,65.37-.44,93-5.67,53.4-10.1,106.17-23.54,158.82-36.92,110.4-28,224.58-66.61,338.87-74.11"/><path class="cls-5" d="M-13.38,789.82c95-8,187.72-45.07,277.87-73.62C309,702.11,353.59,688,399,677.42c30-7,61.13-6.8,90.72-13.77C557.37,647.72,540,548,620.46,550.33c86.82,2.56,16.53,120.52,80.38,145.41,27.77,10.83,64.66-.29,92.56-5.44,52.22-9.65,103.85-22.47,155.38-35.26,108.46-26.91,220.13-63.41,332.2-70.89"/><path class="cls-5" d="M-12.53,787.5c93-7.61,183.82-42.43,272.41-69.55,43.53-13.32,87.2-26.61,131.64-36.59,29.81-6.69,60.56-6.65,90.1-13.12,33.41-7.32,47.25-30.52,62.94-58.12,16.75-29.46,40.66-49.1,76.55-48.09,84.53,2.37,28.32,113.49,92.66,136.53,28.09,10.05,63.69-.14,91.86-5.17,50.83-9.07,101.11-21.18,151.28-33.27,106-25.56,214.75-59.87,324.07-67"/><path class="cls-6" d="M-11.43,782.8c90.48-6.86,178.86-39,265.38-64.3,42.33-12.36,84.79-24.67,128-33.84,29.61-6.28,59.8-6.35,89.24-12.07,33.28-6.47,50.11-27.37,69.11-53.12,20.2-27.38,46.22-44.85,81.72-44,81.88,2,43.23,105.07,108.46,125.12,28.55,8.77,62.32,0,90.86-4.8,49.06-8.33,97.63-19.54,146.09-30.77,102.74-23.8,207.86-55.55,313.6-61.91"/><path class="cls-6" d="M-10.34,777c88.82-6,175.5-36.08,260.77-59.71,41.31-11.45,82.76-22.82,124.85-31,29.06-5.67,58.71-5.31,87.59-10.69,33-6.15,52.45-26.07,74.49-49.37,22.79-24.09,51.53-39.31,85.57-38.45,34.94.89,56.15,20.41,69.36,51,12.43,28.79,23,55.5,56.69,63.52,29.89,7.1,63.65-.93,93.22-5.84,48.32-8,96.2-18.65,144-29.3,96.72-21.56,195.44-49.66,294.79-55"/><path class="cls-6" d="M-9.17,770.18c86.07-5,170.23-32.4,253.18-54,40.05-10.45,80.24-20.8,121-28.15,28.86-5.21,58-4.87,86.72-9.37,33.36-5.22,56-23.11,81.16-44,26.09-21.66,56.46-34.8,91-34.1s58.93,17,77.06,45.43c17.21,27,32.23,50.16,66,56.8,29.85,5.89,62.24-.7,91.79-5.28,46.41-7.19,92.43-16.88,138.36-26.58,93.29-19.7,188.32-45.41,283.94-49.77"/><path class="cls-6" d="M-7.95,762.59C75.26,758.7,156.79,734,237.3,714.47c38.74-9.4,77.62-18.69,117-25.15,28.61-4.7,57.22-4.31,85.8-7.92,34-4.29,60-20.17,88.1-38.36,29.33-19,61.31-30.08,96.65-29.53,34.9.54,62,14.12,85.14,39.58,22,24.28,41.57,44.45,75.64,49.8,29.67,4.66,60.87-.51,90.26-4.69,44.43-6.32,88.51-15,132.52-23.76,89.67-17.79,180.88-41,272.59-44.29"/><path class="cls-6" d="M-6.69,754.59c81.05-2.79,160.54-25,239.33-42.54,37.56-8.35,75.28-16.57,113.4-22,28.23-4,56.33-3.21,84.53-6.25,34.86-3.75,64-18.2,94.93-33.45,31.86-15.71,64.54-24.05,100.29-23.73,35.11.33,64.18,10.68,91.66,32.11,26.57,20.71,50.44,39,84.95,43.78,69.58,9.6,147.12-11.72,215.1-24.21,86.85-16,174.88-36.92,263.48-39.15"/><path class="cls-7" d="M-5.44,746.55c78.08-1.67,154.88-21.09,231.11-36.4,36.23-7.27,72.6-14.39,109.3-18.93,28-3.46,55.73-2.55,83.73-4.74,36.17-2.82,68.56-15,102.19-27.58,34.53-12.88,68.94-19.47,105.92-19.27,36.4.19,68,8.65,99.64,26.38,30.69,17.21,59.27,32.9,95.06,36.45,68.44,6.81,140.62-9.57,207.76-20.84,83.09-14,167.17-32.31,251.71-33.47"/><path class="cls-7" d="M-4.21,738.81c75.17-.64,149.31-17.26,223-30.36,63.24-11.24,124.35-15.91,188.21-19.18,75.65-3.88,144.12-36.87,220.78-36.71a282.81,282.81,0,0,1,107.46,20.76c34.46,13.77,67.51,26.8,105,29.25,147.78,9.63,293.1-45.09,440.69-45.42"/><path class="cls-7" d="M-3,731.7c72.37.28,144-13.6,215.23-24.53,61.67-9.46,121.43-13.19,183.58-14.9,78.77-2.16,153.69-26.87,233-26.92a419.69,419.69,0,0,1,115,15.36c37.91,10.52,75,20.87,114.63,22.28,142,5.07,280.85-38.07,422.6-36.84"/><path class="cls-7" d="M-1.9,725.59c69.75,1,138.91-10.21,207.9-19.05,60.15-7.71,118.71-10.48,179.2-10.92,81.94-.59,162.3-17.47,244.46-17.71,41.49-.11,81.19,2.8,122,10.3,41.09,7.54,81.78,15.24,123.72,15.7,136,1.5,269.84-31.24,405.58-28.76"/><path class="cls-7" d="M-.88,720.82c68,1.54,135.52-7.33,203-14.22,59.08-6,116.87-7.53,176.14-7.15,84.12.53,168-8.85,252.18-9.1,86.42-.26,171.47,15.51,257.71,15.17C1019.36,705,1150,680.82,1281,684.15"/><path class="cls-8" d="M-.92,717.69c123.38,3.64,246.06-16.37,369.66-13.84,86.94,1.77,174.36-1.34,261.33-1.56,90.25-.23,180.59,7.43,270.78,5.72,59-1.13,117.72-1.87,176.66-5.93,67.4-4.64,134.91-10.86,202.54-9"/><path class="cls-8" d="M-.16,716.64c120.66,3.62,240.89-11.23,361.68-7.7,89.47,2.62,179.64,5,269.12,4.75,93.71-.25,188.06.58,281.74-2.21,57.48-1.71,114.89-1.13,172.39-3.9,65-3.14,130.12-7.33,195.28-5.47"/><path class="cls-8" d="M.43,718C119,721,237.29,710.89,355.87,714.85c91.55,3,183.62,9.89,275.22,9.67,216.21-.51,432.7-18.69,648.95-13.4"/><path class="cls-8" d="M.81,722c117.07,1.9,234.15-4.1,351.21-.34,93.06,3,186.2,13.17,279.35,13,98.68-.15,197.49-9.35,296.1-12.61,117.08-3.87,235.42-3.75,352.54-2"/></svg>